{
  "accessors": [
    {
      "bufferView": 3,
      "componentType": 5126,
      "count": 106,
      "max": [
        5.120523929595947,
        152.16049194335938,
        13.84454345703125
      ],
      "min": [
        -5.6449408531188965,
        150.4293212890625,
        11.51201057434082
      ],
      "type": "VEC3"
    },
    {
      "bufferView": 3,
      "byteOffset": 1272,
      "componentType": 5126,
      "count": 106,
      "max": [
        0.6136230230331421,
        0.9101586937904358,
        0.6440318822860718
      ],
      "min": [
        -0.5701590180397034,
        -0.9970546960830688,
        -0.07221997529268265
      ],
      "type": "VEC3"
    },
    {
      "bufferView": 4,
      "componentType": 5126,
      "count": 106,
      "max": [
        0.3531482517719269,
        0.5878528356552124,
        0.9962041974067688,
        1.0
      ],
      "min": [
        -0.829291820526123,
        -0.5519273281097412,
        -0.9983473420143127,
        1.0
      ],
      "type": "VEC4"
    },
    {
      "bufferView": 2,
      "componentType": 5126,
      "count": 106,
      "max": [
        0.14908500015735626,
        0.9240400195121765
      ],
      "min": [
        0.12589499354362488,
        0.9006620049476624
      ],
      "type": "VEC2"
    },
    {
      "bufferView": 1,
      "componentType": 5125,
      "count": 342,
      "type": "SCALAR"
    },
    {
      "bufferView": 3,
      "byteOffset": 2544,
      "componentType": 5126,
      "count": 804,
      "max": [
        4.277268886566162,
        152.9762725830078,
        12.620177268981934
      ],
      "min": [
        -4.74751091003418,
        150.0345001220703,
        9.255163192749023
      ],
      "type": "VEC3"
    },
    {
      "bufferView": 3,
      "byteOffset": 12192,
      "componentType": 5126,
      "count": 804,
      "max": [
        0.9985703825950623,
        0.999386191368103,
        0.9953250288963318
      ],
      "min": [
        -0.9993374943733215,
        -0.999282956123352,
        -0.9999605417251587
      ],
      "type": "VEC3"
    },
    {
      "bufferView": 4,
      "byteOffset": 1696,
      "componentType": 5126,
      "count": 804,
      "max": [
        0.999870777130127,
        0.6310097575187683,
        0.9981746673583984,
        1.0
      ],
      "min": [
        -0.9999749064445496,
        -0.6306940317153931,
        -0.9998557567596436,
        1.0
      ],
      "type": "VEC4"
    },
    {
      "bufferView": 2,
      "byteOffset": 848,
      "componentType": 5126,
      "count": 804,
      "max": [
        0.14958100020885468,
        0.9995740056037903
      ],
      "min": [
        0.1254190057516098,
        0.9259799718856812
      ],
      "type": "VEC2"
    },
    {
      "bufferView": 1,
      "byteOffset": 1368,
      "componentType": 5125,
      "count": 4560,
      "type": "SCALAR"
    },
    {
      "bufferView": 3,
      "byteOffset": 21840,
      "componentType": 5126,
      "count": 10843,
      "max": [
        76.4631118774414,
        162.15310668945313,
        15.965316772460938
      ],
      "min": [
        -76.86021423339844,
        20.94460105895996,
        -7.789305210113525
      ],
      "type": "VEC3"
    },
    {
      "bufferView": 3,
      "byteOffset": 151956,
      "componentType": 5126,
      "count": 10843,
      "max": [
        0.9998282790184021,
        0.9998406767845154,
        0.9999910593032837
      ],
      "min": [
        -0.9998836517333984,
        -0.9999936819076538,
        -0.9999501705169678
      ],
      "type": "VEC3"
    },
    {
      "bufferView": 4,
      "byteOffset": 14560,
      "componentType": 5126,
      "count": 10843,
      "max": [
        0.9999986290931702,
        0.9998185038566589,
        0.9999918341636658,
        1.0
      ],
      "min": [
        -0.9999921321868896,
        -0.9999787211418152,
        -0.9998686909675598,
        -1.0
      ],
      "type": "VEC4"
    },
    {
      "bufferView": 2,
      "byteOffset": 7280,
      "componentType": 5126,
      "count": 10843,
      "max": [
        0.24811799824237823,
        0.9994639754295349
      ],
      "min": [
        0.0012469999492168427,
        0.7527250051498413
      ],
      "type": "VEC2"
    },
    {
      "bufferView": 1,
      "byteOffset": 19608,
      "componentType": 5125,
      "count": 57531,
      "type": "SCALAR"
    },
    {
      "bufferView": 3,
      "byteOffset": 282072,
      "componentType": 5126,
      "count": 778,
      "max": [
        13.023109436035156,
        140.12127685546875,
        17.34807777404785
      ],
      "min": [
        -13.80955982208252,
        109.1803207397461,
        -6.811397075653076
      ],
      "type": "VEC3"
    },
    {
      "bufferView": 3,
      "byteOffset": 291408,
      "componentType": 5126,
      "count": 778,
      "max": [
        0.994469404220581,
        0.9980144500732422,
        0.9993541836738586
      ],
      "min": [
        -0.9964630007743835,
        -0.9982960820198059,
        -0.9996205568313599
      ],
      "type": "VEC3"
    },
    {
      "bufferView": 4,
      "byteOffset": 188048,
      "componentType": 5126,
      "count": 778,
      "max": [
        0.9999924302101135,
        0.9988198280334473,
        0.9986895322799683,
        1.0
      ],
      "min": [
        -0.9999363422393799,
        -0.999262273311615,
        -0.9997131824493408,
        1.0
      ],
      "type": "VEC4"
    },
    {
      "bufferView": 2,
      "byteOffset": 94024,
      "componentType": 5126,
      "count": 778,
      "max": [
        0.6237710118293762,
        0.9987419843673706
      ],
      "min": [
        0.5011849999427795,
        0.8774120211601257
      ],
      "type": "VEC2"
    },
    {
      "bufferView": 1,
      "byteOffset": 249732,
      "componentType": 5125,
      "count": 3804,
      "type": "SCALAR"
    },
    {
      "bufferView": 3,
      "byteOffset": 300744,
      "componentType": 5126,
      "count": 2775,
      "max": [
        27.345722198486328,
        142.30323791503906,
        20.980003356933594
      ],
      "min": [
        -25.369033813476563,
        27.49137306213379,
        -17.90532875061035
      ],
      "type": "VEC3"
    },
    {
      "bufferView": 3,
      "byteOffset": 334044,
      "componentType": 5126,
      "count": 2775,
      "max": [
        0.9997999668121338,
        0.9996766448020935,
        0.9995434880256653
      ],
      "min": [
        -0.9999439120292664,
        -0.9992676973342896,
        -0.9999819993972778
      ],
      "type": "VEC3"
    },
    {
      "bufferView": 4,
      "byteOffset": 200496,
      "componentType": 5126,
      "count": 2775,
      "max": [
        0.9998788237571716,
        0.999844491481781,
        0.9998161792755127,
        1.0
      ],
      "min": [
        -0.9999454021453857,
        -0.9999890923500061,
        -0.9999984502792358,
        -1.0
      ],
      "type": "VEC4"
    },
    {
      "bufferView": 2,
      "byteOffset": 100248,
      "componentType": 5126,
      "count": 2775,
      "max": [
        0.4991320073604584,
        0.8735899925231934
      ],
      "min": [
        0.37635698914527893,
        0.751151978969574
      ],
      "type": "VEC2"
    },
    {
      "bufferView": 1,
      "byteOffset": 264948,
      "componentType": 5125,
      "count": 13764,
      "type": "SCALAR"
    },
    {
      "bufferView": 3,
      "byteOffset": 367344,
      "componentType": 5126,
      "count": 1280,
      "max": [
        18.155864715576172,
        31.636455535888672,
        18.19317626953125
      ],
      "min": [
        -16.54782485961914,
        -1.620479941368103,
        -9.598820686340332
      ],
      "type": "VEC3"
    },
    {
      "bufferView": 3,
      "byteOffset": 382704,
      "componentType": 5126,
      "count": 1280,
      "max": [
        0.9995216727256775,
        0.9689909815788269,
        0.9999706745147705
      ],
      "min": [
        -0.999498188495636,
        -0.9982354044914246,
        -0.9997969269752502
      ],
      "type": "VEC3"
    },
    {
      "bufferView": 4,
      "byteOffset": 244896,
      "componentType": 5126,
      "count": 1280,
      "max": [
        0.999198853969574,
        0.9998677372932434,
        0.9841662049293518,
        1.0
      ],
      "min": [
        -0.9989268779754639,
        -0.9285072684288025,
        -0.9999168515205383,
        -1.0
      ],
      "type": "VEC4"
    },
    {
      "bufferView": 2,
      "byteOffset": 122448,
      "componentType": 5126,
      "count": 1280,
      "max": [
        0.3739050030708313,
        0.8703320026397705
      ],
      "min": [
        0.2511959969997406,
        0.7518410086631775
      ],
      "type": "VEC2"
    },
    {
      "bufferView": 1,
      "byteOffset": 320004,
      "componentType": 5125,
      "count": 5868,
      "type": "SCALAR"
    },
    {
      "bufferView": 3,
      "byteOffset": 398064,
      "componentType": 5126,
      "count": 3625,
      "max": [
        10.491674423217773,
        163.25062561035156,
        13.99748420715332
      ],
      "min": [
        -9.784899711608887,
        141.97300720214844,
        -7.238354206085205
      ],
      "type": "VEC3"
    },
    {
      "bufferView": 3,
      "byteOffset": 441564,
      "componentType": 5126,
      "count": 3625,
      "max": [
        0.9998246431350708,
        0.9984843730926514,
        0.9878196120262146
      ],
      "min": [
        -0.9999937415122986,
        -0.9972206950187683,
        -0.9994043707847595
      ],
      "type": "VEC3"
    },
    {
      "bufferView": 4,
      "byteOffset": 265376,
      "componentType": 5126,
      "count": 3625,
      "max": [
        0.9988364577293396,
        0.9992583394050598,
        0.9987578392028809,
        1.0
      ],
      "min": [
        -0.9999473094940186,
        -0.9991748929023743,
        -0.9978657960891724,
        -1.0
      ],
      "type": "VEC4"
    },
    {
      "bufferView": 2,
      "byteOffset": 132688,
      "componentType": 5126,
      "count": 3625,
      "max": [
        0.49915000796318054,
        0.9997990131378174
      ],
      "min": [
        0.37593400478363037,
        0.8750039935112
      ],
      "type": "VEC2"
    },
    {
      "bufferView": 1,
      "byteOffset": 343476,
      "componentType": 5125,
      "count": 14205,
      "type": "SCALAR"
    },
    {
      "bufferView": 3,
      "byteOffset": 485064,
      "componentType": 5126,
      "count": 1566,
      "max": [
        71.46207427978516,
        129.35496520996094,
        6.453083038330078
      ],
      "min": [
        -71.96975708007813,
        120.60801696777344,
        -6.99445915222168
      ],
      "type": "VEC3"
    },
    {
      "bufferView": 3,
      "byteOffset": 503856,
      "componentType": 5126,
      "count": 1566,
      "max": [
        0.9995827674865723,
        0.9999645352363586,
        0.9994897246360779
      ],
      "min": [
        -0.999865710735321,
        -0.9997057318687439,
        -0.9996883273124695
      ],
      "type": "VEC3"
    },
    {
      "bufferView": 4,
      "byteOffset": 323376,
      "componentType": 5126,
      "count": 1566,
      "max": [
        0.9996761083602905,
        0.999461829662323,
        0.9980443120002747,
        1.0
      ],
      "min": [
        -0.9997338056564331,
        -0.9997860193252563,
        -0.9998647570610046,
        1.0
      ],
      "type": "VEC4"
    },
    {
      "bufferView": 2,
      "byteOffset": 161688,
      "componentType": 5126,
      "count": 1566,
      "max": [
        0.37434399127960205,
        0.9987419843673706
      ],
      "min": [
        0.25066500902175903,
        0.8761230111122131
      ],
      "type": "VEC2"
    },
    {
      "bufferView": 1,
      "byteOffset": 400296,
      "componentType": 5125,
      "count": 7236,
      "type": "SCALAR"
    },
    {
      "bufferView": 5,
      "componentType": 5126,
      "count": 34,
      "max": [
        1.0,
        0.9972049593925476,
        0.282387375831604,
        0.0,
        0.06105441600084305,
        1.0,
        0.9980865120887756,
        0.0,
        0.999770998954773,
        0.9992076754570007,
        1.0,
        0.0,
        10.947977066040039,
        81.24723815917969,
        131.7198028564453,
        1.0
      ],
      "min": [
        -0.9991097450256348,
        -0.9984123706817627,
        -0.2819902002811432,
        0.0,
        -0.0634278729557991,
        -0.9990923404693604,
        -0.99994295835495,
        0.0,
        -0.9996336102485657,
        -0.1295928657054901,
        -0.025368060916662216,
        0.0,
        -11.344429016113281,
        -143.00445556640625,
        -4.646531581878662,
        1.0
      ],
      "type": "MAT4"
    },
    {
      "bufferView": 0,
      "componentType": 5123,
      "count": 106,
      "type": "VEC4"
    },
    {
      "bufferView": 4,
      "byteOffset": 348432,
      "componentType": 5126,
      "count": 106,
      "max": [
        1.0,
        0.0,
        0.0,
        0.0
      ],
      "min": [
        1.0,
        0.0,
        0.0,
        0.0
      ],
      "type": "VEC4"
    },
    {
      "bufferView": 0,
      "byteOffset": 848,
      "componentType": 5123,
      "count": 804,
      "type": "VEC4"
    },
    {
      "bufferView": 4,
      "byteOffset": 350128,
      "componentType": 5126,
      "count": 804,
      "max": [
        1.0,
        0.0,
        0.0,
        0.0
      ],
      "min": [
        1.0,
        0.0,
        0.0,
        0.0
      ],
      "type": "VEC4"
    },
    {
      "bufferView": 0,
      "byteOffset": 7280,
      "componentType": 5123,
      "count": 10843,
      "type": "VEC4"
    },
    {
      "bufferView": 4,
      "byteOffset": 362992,
      "componentType": 5126,
      "count": 10843,
      "max": [
        1.0,
        0.49976202845573425,
        0.32104653120040894,
        0.06886216998100281
      ],
      "min": [
        0.3488423228263855,
        0.0,
        0.0,
        0.0
      ],
      "type": "VEC4"
    },
    {
      "bufferView": 0,
      "byteOffset": 94024,
      "componentType": 5123,
      "count": 778,
      "type": "VEC4"
    },
    {
      "bufferView": 4,
      "byteOffset": 536480,
      "componentType": 5126,
      "count": 778,
      "max": [
        1.0,
        0.4915785491466522,
        0.1806906908750534,
        0.05247711390256882
      ],
      "min": [
        0.48578083515167236,
        0.0,
        0.0,
        0.0
      ],
      "type": "VEC4"
    },
    {
      "bufferView": 0,
      "byteOffset": 100248,
      "componentType": 5123,
      "count": 2775,
      "type": "VEC4"
    },
    {
      "bufferView": 4,
      "byteOffset": 548928,
      "componentType": 5126,
      "count": 2775,
      "max": [
        1.0,
        0.4997924566268921,
        0.29598814249038696,
        0.1631212681531906
      ],
      "min": [
        0.3073902726173401,
        0.0,
        0.0,
        0.0
      ],
      "type": "VEC4"
    },
    {
      "bufferView": 0,
      "byteOffset": 122448,
      "componentType": 5123,
      "count": 1280,
      "type": "VEC4"
    },
    {
      "bufferView": 4,
      "byteOffset": 593328,
      "componentType": 5126,
      "count": 1280,
      "max": [
        1.0,
        0.48915624618530273,
        0.19105543196201324,
        0.010209635831415653
      ],
      "min": [
        0.46710681915283203,
        0.0,
        0.0,
        0.0
      ],
      "type": "VEC4"
    },
    {
      "bufferView": 0,
      "byteOffset": 132688,
      "componentType": 5123,
      "count": 3625,
      "type": "VEC4"
    },
    {
      "bufferView": 4,
      "byteOffset": 613808,
      "componentType": 5126,
      "count": 3625,
      "max": [
        1.0,
        0.2883148193359375,
        0.2731357514858246,
        0.0
      ],
      "min": [
        0.4479507505893707,
        0.0,
        0.0,
        0.0
      ],
      "type": "VEC4"
    },
    {
      "bufferView": 0,
      "byteOffset": 161688,
      "componentType": 5123,
      "count": 1566,
      "type": "VEC4"
    },
    {
      "bufferView": 4,
      "byteOffset": 671808,
      "componentType": 5126,
      "count": 1566,
      "max": [
        1.0,
        0.49996328353881836,
        0.3113577961921692,
        0.012214109301567078
      ],
      "min": [
        0.34860387444496155,
        0.0,
        0.0,
        0.0
      ],
      "type": "VEC4"
    },
    {
      "bufferView": 6,
      "componentType": 5126,
      "count": 42,
      "max": [
        1.6333333253860474
      ],
      "min": [
        0.0
      ],
      "type": "SCALAR"
    },
    {
      "bufferView": 7,
      "componentType": 5126,
      "count": 42,
      "max": [
        2.842170943040401e-14,
        7.043365478515625,
        2.2604446411132813
      ],
      "min": [
        -2.842170943040401e-14,
        7.043365478515625,
        2.2604446411132813
      ],
      "type": "VEC3"
    },
    {
      "bufferView": 6,
      "byteOffset": 168,
      "componentType": 5126,
      "count": 50,
      "max": [
        1.6333333253860474
      ],
      "min": [
        0.0
      ],
      "type": "SCALAR"
    },
    {
      "bufferView": 8,
      "componentType": 5126,
      "count": 50,
      "max": [
        -0.130338653922081,
        0.5048795342445374,
        -0.04522692412137985,
        0.875661313533783
      ],
      "min": [
        -0.2999193072319031,
        0.3877635896205902,
        -0.19848808646202087,
        0.8246920108795166
      ],
      "type": "VEC4"
    },
    {
      "bufferView": 6,
      "byteOffset": 368,
      "componentType": 5126,
      "count": 49,
      "max": [
        1.6333333253860474
      ],
      "min": [
        0.0
      ],
      "type": "SCALAR"
    },
    {
      "bufferView": 7,
      "byteOffset": 504,
      "componentType": 5126,
      "count": 49,
      "max": [
        2.842170943040401e-14,
        14.869270324707031,
        2.4288240751957346e-08
      ],
      "min": [
        -2.842170943040401e-14,
        14.869270324707031,
        2.42881981193932e-08
      ],
      "type": "VEC3"
    },
    {
      "bufferView": 6,
      "byteOffset": 564,
      "componentType": 5126,
      "count": 50,
      "max": [
        1.6333333253860474
      ],
      "min": [
        0.0
      ],
      "type": "SCALAR"
    },
    {
      "bufferView": 8,
      "byteOffset": 800,
      "componentType": 5126,
      "count": 50,
      "max": [
        -0.03369688242673874,
        0.07322611659765244,
        0.040894411504268646,
        0.9989391565322876
      ],
      "min": [
        -0.037991173565387726,
        -0.0335080511868,
        0.025833912193775177,
        0.9958071112632751
      ],
      "type": "VEC4"
    },
    {
      "bufferView": 6,
      "byteOffset": 764,
      "componentType": 5126,
      "count": 1,
      "max": [
        0.0
      ],
      "min": [
        0.0
      ],
      "type": "SCALAR"
    },
    {
      "bufferView": 8,
      "byteOffset": 1600,
      "componentType": 5126,
      "count": 1,
      "max": [
        0.3417346179485321,
        -0.03311440721154213,
        -0.046090900897979736,
        0.9380813241004944
      ],
      "min": [
        0.3417346179485321,
        -0.03311440721154213,
        -0.046090900897979736,
        0.9380813241004944
      ],
      "type": "VEC4"
    },
    {
      "bufferView": 6,
      "byteOffset": 768,
      "componentType": 5126,
      "count": 1,
      "max": [
        0.0
      ],
      "min": [
        0.0
      ],
      "type": "SCALAR"
    },
    {
      "bufferView": 8,
      "byteOffset": 1616,
      "componentType": 5126,
      "count": 1,
      "max": [
        0.7124010324478149,
        -0.014727546833455563,
        -0.06834322214126587,
        0.698281466960907
      ],
      "min": [
        0.7124010324478149,
        -0.014727546833455563,
        -0.06834322214126587,
        0.698281466960907
      ],
      "type": "VEC4"
    },
    {
      "bufferView": 6,
      "byteOffset": 772,
      "componentType": 5126,
      "count": 1,
      "max": [
        0.0
      ],
      "min": [
        0.0
      ],
      "type": "SCALAR"
    },
    {
      "bufferView": 8,
      "byteOffset": 1632,
      "componentType": 5126,
      "count": 1,
      "max": [
        0.5070812106132507,
        0.03859782963991165,
        -0.042811211198568344,
        0.8599686622619629
      ],
      "min": [
        0.5070812106132507,
        0.03859782963991165,
        -0.042811211198568344,
        0.8599686622619629
      ],
      "type": "VEC4"
    },
    {
      "bufferView": 6,
      "byteOffset": 776,
      "componentType": 5126,
      "count": 49,
      "max": [
        1.6333333253860474
      ],
      "min": [
        0.0
      ],
      "type": "SCALAR"
    },
    {
      "bufferView": 7,
      "byteOffset": 1092,
      "componentType": 5126,
      "count": 49,
      "max": [
        3.357837385919993e-08,
        18.463605880737305,
        -1.8698550263707148e-08
      ],
      "min": [
        3.357833833206314e-08,
        18.463605880737305,
        -1.8698592896271293e-08
      ],
      "type": "VEC3"
    },
    {
      "bufferView": 6,
      "byteOffset": 972,
      "componentType": 5126,
      "count": 50,
      "max": [
        1.6333333253860474
      ],
      "min": [
        0.0
      ],
      "type": "SCALAR"
    },
    {
      "bufferView": 8,
      "byteOffset": 1648,
      "componentType": 5126,
      "count": 50,
      "max": [
        0.007334370631724596,
        0.2640301287174225,
        0.20460227131843567,
        0.9992916584014893
      ],
      "min": [
        -0.18531399965286255,
        -0.09009955823421478,
        0.0007907070103101432,
        0.9468082785606384
      ],
      "type": "VEC4"
    },
    {
      "bufferView": 6,
      "byteOffset": 1172,
      "componentType": 5126,
      "count": 50,
      "max": [
        1.6333333253860474
      ],
      "min": [
        0.0
      ],
      "type": "SCALAR"
    },
    {
      "bufferView": 7,
      "byteOffset": 1680,
      "componentType": 5126,
      "count": 50,
      "max": [
        -5.48797629562614e-09,
        18.849075317382813,
        1.7232245852483175e-08
      ],
      "min": [
        -5.488061560754431e-09,
        18.849075317382813,
        1.723220321991903e-08
      ],
      "type": "VEC3"
    },
    {
      "bufferView": 6,
      "byteOffset": 1372,
      "componentType": 5126,
      "count": 50,
      "max": [
        1.6333333253860474
      ],
      "min": [
        0.0
      ],
      "type": "SCALAR"
    },
    {
      "bufferView": 8,
      "byteOffset": 2448,
      "componentType": 5126,
      "count": 50,
      "max": [
        0.009319747798144817,
        0.025167707353830338,
        0.466435045003891,
        0.952223002910614
      ],
      "min": [
        -0.020573081448674202,
        -0.02391921542584896,
        0.3052463233470917,
        0.8844378590583801
      ],
      "type": "VEC4"
    },
    {
      "bufferView": 6,
      "byteOffset": 1572,
      "componentType": 5126,
      "count": 50,
      "max": [
        1.6333333253860474
      ],
      "min": [
        0.0
      ],
      "type": "SCALAR"
    },
    {
      "bufferView": 7,
      "byteOffset": 2280,
      "componentType": 5126,
      "count": 50,
      "max": [
        -1.3987175861984724e-09,
        15.438668251037598,
        -1.0073256362375105e-07
      ],
      "min": [
        -1.398760218762618e-09,
        15.438668251037598,
        -1.0073262046716991e-07
      ],
      "type": "VEC3"
    },
    {
      "bufferView": 6,
      "byteOffset": 1772,
      "componentType": 5126,
      "count": 50,
      "max": [
        1.6333333253860474
      ],
      "min": [
        0.0
      ],
      "type": "SCALAR"
    },
    {
      "bufferView": 8,
      "byteOffset": 3248,
      "componentType": 5126,
      "count": 50,
      "max": [
        0.2280273586511612,
        -0.3858645260334015,
        0.201390340924263,
        0.9058102965354919
      ],
      "min": [
        0.045747313648462296,
        -0.517518937587738,
        -0.20102618634700775,
        0.8174951076507568
      ],
      "type": "VEC4"
    },
    {
      "bufferView": 6,
      "byteOffset": 1972,
      "componentType": 5126,
      "count": 50,
      "max": [
        1.6333333253860474
      ],
      "min": [
        0.0
      ],
      "type": "SCALAR"
    },
    {
      "bufferView": 8,
      "byteOffset": 4048,
      "componentType": 5126,
      "count": 50,
      "max": [
        0.6740251183509827,
        0.35875487327575684,
        -0.5745922327041626,
        0.3717222213745117
      ],
      "min": [
        0.6347923278808594,
        0.2807188630104065,
        -0.6075624823570251,
        0.314262330532074
      ],
      "type": "VEC4"
    },
    {
      "bufferView": 6,
      "byteOffset": 2172,
      "componentType": 5126,
      "count": 50,
      "max": [
        1.6333333253860474
      ],
      "min": [
        0.0
      ],
      "type": "SCALAR"
    },
    {
      "bufferView": 8,
      "byteOffset": 4848,
      "componentType": 5126,
      "count": 50,
      "max": [
        0.00026035940391011536,
        0.020772457122802734,
        -0.059021200984716415,
        0.9980405569076538
      ],
      "min": [
        -0.20346269011497498,
        -0.01592516340315342,
        -0.09240023046731949,
        0.9745827317237854
      ],
      "type": "VEC4"
    },
    {
      "bufferView": 6,
      "byteOffset": 2372,
      "componentType": 5126,
      "count": 49,
      "max": [
        1.6333333253860474
      ],
      "min": [
        0.0
      ],
      "type": "SCALAR"
    },
    {
      "bufferView": 7,
      "byteOffset": 2880,
      "componentType": 5126,
      "count": 49,
      "max": [
        -6.068646030144009e-09,
        1.2365106344223022,
        -2.3283348582481267e-09
      ],
      "min": [
        -6.068681557280797e-09,
        1.2365106344223022,
        -2.328420123376418e-09
      ],
      "type": "VEC3"
    },
    {
      "bufferView": 6,
      "byteOffset": 2568,
      "componentType": 5126,
      "count": 50,
      "max": [
        1.6333333253860474
      ],
      "min": [
        0.0
      ],
      "type": "SCALAR"
    },
    {
      "bufferView": 8,
      "byteOffset": 5648,
      "componentType": 5126,
      "count": 50,
      "max": [
        0.06619218736886978,
        0.0038626608438789845,
        -0.03413994982838631,
        0.9990816712379456
      ],
      "min": [
        0.00017303293861914426,
        0.0017761543858796358,
        -0.04317370429635048,
        0.997215211391449
      ],
      "type": "VEC4"
    },
    {
      "bufferView": 6,
      "byteOffset": 2768,
      "componentType": 5126,
      "count": 48,
      "max": [
        1.6333333253860474
      ],
      "min": [
        0.0
      ],
      "type": "SCALAR"
    },
    {
      "bufferView": 7,
      "byteOffset": 3468,
      "componentType": 5126,
      "count": 48,
      "max": [
        -1.6664785107423086e-09,
        13.45737075805664,
        3.46491617619904e-08
      ],
      "min": [
        -1.666506932451739e-09,
        13.45737075805664,
        3.464907649686211e-08
      ],
      "type": "VEC3"
    },
    {
      "bufferView": 6,
      "byteOffset": 2960,
      "componentType": 5126,
      "count": 50,
      "max": [
        1.6333333253860474
      ],
      "min": [
        0.0
      ],
      "type": "SCALAR"
    },
    {
      "bufferView": 8,
      "byteOffset": 6448,
      "componentType": 5126,
      "count": 50,
      "max": [
        0.06358365714550018,
        0.002596459351480007,
        0.05963614583015442,
        0.9999837279319763
      ],
      "min": [
        -0.11710713058710098,
        -0.016640694811940193,
        -0.022673659026622772,
        0.9928586483001709
      ],
      "type": "VEC4"
    },
    {
      "bufferView": 6,
      "byteOffset": 3160,
      "componentType": 5126,
      "count": 49,
      "max": [
        1.6333333253860474
      ],
      "min": [
        0.0
      ],
      "type": "SCALAR"
    },
    {
      "bufferView": 7,
      "byteOffset": 4044,
      "componentType": 5126,
      "count": 49,
      "max": [
        2.049524994163221e-08,
        18.44127655029297,
        -3.8178882277861703e-10
      ],
      "min": [
        2.0495207309068064e-08,
        18.44127655029297,
        -3.8184566619747784e-10
      ],
      "type": "VEC3"
    },
    {
      "bufferView": 6,
      "byteOffset": 3356,
      "componentType": 5126,
      "count": 50,
      "max": [
        1.6333333253860474
      ],
      "min": [
        0.0
      ],
      "type": "SCALAR"
    },
    {
      "bufferView": 8,
      "byteOffset": 7248,
      "componentType": 5126,
      "count": 50,
      "max": [
        -0.0723966658115387,
        0.2958526313304901,
        -0.008593127131462097,
        0.9787647724151611
      ],
      "min": [
        -0.22800058126449585,
        0.14315737783908844,
        -0.18383733928203583,
        0.9370551109313965
      ],
      "type": "VEC4"
    },
    {
      "bufferView": 6,
      "byteOffset": 3556,
      "componentType": 5126,
      "count": 46,
      "max": [
        1.6333333253860474
      ],
      "min": [
        0.0
      ],
      "type": "SCALAR"
    },
    {
      "bufferView": 7,
      "byteOffset": 4632,
      "componentType": 5126,
      "count": 46,
      "max": [
        2.851470526366029e-08,
        18.971765518188477,
        7.351715680670168e-08
      ],
      "min": [
        2.8514662631096144e-08,
        18.971765518188477,
        7.351709996328282e-08
      ],
      "type": "VEC3"
    },
    {
      "bufferView": 6,
      "byteOffset": 3740,
      "componentType": 5126,
      "count": 50,
      "max": [
        1.6333333253860474
      ],
      "min": [
        0.0
      ],
      "type": "SCALAR"
    },
    {
      "bufferView": 8,
      "byteOffset": 8048,
      "componentType": 5126,
      "count": 50,
      "max": [
        0.12767566740512848,
        0.17585007846355438,
        -0.3186435401439667,
        0.93366938829422
      ],
      "min": [
        0.0494842603802681,
        0.1029878631234169,
        -0.560289740562439,
        0.8061569929122925
      ],
      "type": "VEC4"
    },
    {
      "bufferView": 6,
      "byteOffset": 3940,
      "componentType": 5126,
      "count": 50,
      "max": [
        1.6333333253860474
      ],
      "min": [
        0.0
      ],
      "type": "SCALAR"
    },
    {
      "bufferView": 7,
      "byteOffset": 5184,
      "componentType": 5126,
      "count": 50,
      "max": [
        -3.158191930197063e-09,
        15.438668251037598,
        -1.0069274480883905e-07
      ],
      "min": [
        -3.1582203519064933e-09,
        15.438668251037598,
        -1.0069280165225791e-07
      ],
      "type": "VEC3"
    },
    {
      "bufferView": 6,
      "byteOffset": 4140,
      "componentType": 5126,
      "count": 50,
      "max": [
        1.6333333253860474
      ],
      "min": [
        0.0
      ],
      "type": "SCALAR"
    },
    {
      "bufferView": 8,
      "byteOffset": 8848,
      "componentType": 5126,
      "count": 50,
      "max": [
        0.36359044909477234,
        0.07582419365644455,
        0.23383888602256775,
        0.9692416787147522
      ],
      "min": [
        0.18269777297973633,
        -0.05332170054316521,
        -0.10037562996149063,
        0.9027107954025269
      ],
      "type": "VEC4"
    },
    {
      "bufferView": 6,
      "byteOffset": 4340,
      "componentType": 5126,
      "count": 50,
      "max": [
        1.6333333253860474
      ],
      "min": [
        0.0
      ],
      "type": "SCALAR"
    },
    {
      "bufferView": 8,
      "byteOffset": 9648,
      "componentType": 5126,
      "count": 50,
      "max": [
        0.6631991267204285,
        -0.3287893533706665,
        0.5799868702888489,
        0.4389764368534088
      ],
      "min": [
        0.6076919436454773,
        -0.3833177387714386,
        0.5113135576248169,
        0.3838839530944824
      ],
      "type": "VEC4"
    },
    {
      "bufferView": 6,
      "byteOffset": 4540,
      "componentType": 5126,
      "count": 49,
      "max": [
        1.6333333253860474
      ],
      "min": [
        0.0
      ],
      "type": "SCALAR"
    },
    {
      "bufferView": 7,
      "byteOffset": 5784,
      "componentType": 5126,
      "count": 49,
      "max": [
        2.842170943040401e-14,
        13.217122077941895,
        5.367013500290341e-09
      ],
      "min": [
        -2.842170943040401e-14,
        13.217122077941895,
        5.36698507858091e-09
      ],
      "type": "VEC3"
    },
    {
      "bufferView": 6,
      "byteOffset": 4736,
      "componentType": 5126,
      "count": 50,
      "max": [
        1.6333333253860474
      ],
      "min": [
        0.0
      ],
      "type": "SCALAR"
    },
    {
      "bufferView": 8,
      "byteOffset": 10448,
      "componentType": 5126,
      "count": 50,
      "max": [
        0.1078478991985321,
        0.01592816412448883,
        0.00773391081020236,
        0.9992552399635315
      ],
      "min": [
        0.02875714749097824,
        0.00027150666574016213,
        -0.04486381262540817,
        0.994133710861206
      ],
      "type": "VEC4"
    },
    {
      "bufferView": 6,
      "byteOffset": 4936,
      "componentType": 5126,
      "count": 47,
      "max": [
        1.6333333253860474
      ],
      "min": [
        0.0
      ],
      "type": "SCALAR"
    },
    {
      "bufferView": 7,
      "byteOffset": 6372,
      "componentType": 5126,
      "count": 47,
      "max": [
        2.842170943040401e-14,
        11.564980506896973,
        -6.780496164537908e-10
      ],
      "min": [
        -2.842170943040401e-14,
        11.564980506896973,
        -6.780851435905788e-10
      ],
      "type": "VEC3"
    },
    {
      "bufferView": 6,
      "byteOffset": 5124,
      "componentType": 5126,
      "count": 50,
      "max": [
        1.6333333253860474
      ],
      "min": [
        0.0
      ],
      "type": "SCALAR"
    },
    {
      "bufferView": 8,
      "byteOffset": 11248,
      "componentType": 5126,
      "count": 50,
      "max": [
        0.12165120244026184,
        0.016165288165211678,
        0.01257503591477871,
        0.998417854309082
      ],
      "min": [
        0.05074384808540344,
        -0.00036302124499343336,
        -0.04467499256134033,
        0.9925657510757446
      ],
      "type": "VEC4"
    },
    {
      "bufferView": 6,
      "byteOffset": 5324,
      "componentType": 5126,
      "count": 42,
      "max": [
        1.6333333253860474
      ],
      "min": [
        0.0
      ],
      "type": "SCALAR"
    },
    {
      "bufferView": 7,
      "byteOffset": 6936,
      "componentType": 5126,
      "count": 42,
      "max": [
        2.842170943040401e-14,
        9.912513732910156,
        0.08217740058898926
      ],
      "min": [
        -2.842170943040401e-14,
        9.912513732910156,
        0.08217740058898926
      ],
      "type": "VEC3"
    },
    {
      "bufferView": 6,
      "byteOffset": 5492,
      "componentType": 5126,
      "count": 50,
      "max": [
        1.6333333253860474
      ],
      "min": [
        0.0
      ],
      "type": "SCALAR"
    },
    {
      "bufferView": 8,
      "byteOffset": 12048,
      "componentType": 5126,
      "count": 50,
      "max": [
        0.22071798145771027,
        0.04863777011632919,
        0.00039916628156788647,
        0.9929907321929932
      ],
      "min": [
        0.10759826749563217,
        -0.02419152669608593,
        -0.1277228444814682,
        0.9708396196365356
      ],
      "type": "VEC4"
    },
    {
      "bufferView": 6,
      "byteOffset": 5692,
      "componentType": 5126,
      "count": 50,
      "max": [
        1.6333333253860474
      ],
      "min": [
        0.0
      ],
      "type": "SCALAR"
    },
    {
      "bufferView": 7,
      "byteOffset": 7440,
      "componentType": 5126,
      "count": 50,
      "max": [
        -3.132097958769009e-08,
        15.459321975708008,
        -1.1219054840694298e-07
      ],
      "min": [
        -3.132103643110895e-08,
        15.459321975708008,
        -1.1219057682865241e-07
      ],
      "type": "VEC3"
    },
    {
      "bufferView": 6,
      "byteOffset": 5892,
      "componentType": 5126,
      "count": 50,
      "max": [
        1.6333333253860474
      ],
      "min": [
        0.0
      ],
      "type": "SCALAR"
    },
    {
      "bufferView": 8,
      "byteOffset": 12848,
      "componentType": 5126,
      "count": 50,
      "max": [
        0.3952167332172394,
        0.017446959391236305,
        0.05749782919883728,
        0.9785318970680237
      ],
      "min": [
        0.1770154982805252,
        -0.1268824189901352,
        -0.0924469530582428,
        0.9168204069137573
      ],
      "type": "VEC4"
    },
    {
      "bufferView": 6,
      "byteOffset": 6092,
      "componentType": 5126,
      "count": 50,
      "max": [
        1.6333333253860474
      ],
      "min": [
        0.0
      ],
      "type": "SCALAR"
    },
    {
      "bufferView": 7,
      "byteOffset": 8040,
      "componentType": 5126,
      "count": 50,
      "max": [
        -1.4535856962538674e-08,
        33.941444396972656,
        -2.792233999571181e-09
      ],
      "min": [
        -1.4535913805957534e-08,
        33.941444396972656,
        -2.7922624212806113e-09
      ],
      "type": "VEC3"
    },
    {
      "bufferView": 6,
      "byteOffset": 6292,
      "componentType": 5126,
      "count": 50,
      "max": [
        1.6333333253860474
      ],
      "min": [
        0.0
      ],
      "type": "SCALAR"
    },
    {
      "bufferView": 8,
      "byteOffset": 13648,
      "componentType": 5126,
      "count": 50,
      "max": [
        0.7793468832969666,
        0.13235336542129517,
        0.08963645994663239,
        0.9063838124275208
      ],
      "min": [
        0.36760053038597107,
        -0.1445499211549759,
        -0.21339455246925354,
        0.624506950378418
      ],
      "type": "VEC4"
    },
    {
      "bufferView": 6,
      "byteOffset": 6492,
      "componentType": 5126,
      "count": 50,
      "max": [
        1.6333333253860474
      ],
      "min": [
        0.0
      ],
      "type": "SCALAR"
    },
    {
      "bufferView": 7,
      "byteOffset": 8640,
      "componentType": 5126,
      "count": 50,
      "max": [
        -5.001936642656801e-08,
        39.36050033569336,
        -5.1183889127059956e-08
      ],
      "min": [
        -5.001940905913216e-08,
        39.36050033569336,
        -5.11839317596241e-08
      ],
      "type": "VEC3"
    },
    {
      "bufferView": 6,
      "byteOffset": 6692,
      "componentType": 5126,
      "count": 50,
      "max": [
        1.6333333253860474
      ],
      "min": [
        0.0
      ],
      "type": "SCALAR"
    },
    {
      "bufferView": 8,
      "byteOffset": 14448,
      "componentType": 5126,
      "count": 50,
      "max": [
        -0.1836250126361847,
        0.08831848949193954,
        0.06262458860874176,
        0.9810690879821777
      ],
      "min": [
        -0.6892850399017334,
        -0.005151829682290554,
        -0.04647691175341606,
        0.7175833582878113
      ],
      "type": "VEC4"
    },
    {
      "bufferView": 6,
      "byteOffset": 6892,
      "componentType": 5126,
      "count": 50,
      "max": [
        1.6333333253860474
      ],
      "min": [
        0.0
      ],
      "type": "SCALAR"
    },
    {
      "bufferView": 8,
      "byteOffset": 15248,
      "componentType": 5126,
      "count": 50,
      "max": [
        0.17103861272335052,
        0.40643933415412903,
        0.9825355410575867,
        0.15511563420295715
      ],
      "min": [
        0.08592548966407776,
        0.10154225677251816,
        0.8812636733055115,
        -0.18371520936489105
      ],
      "type": "VEC4"
    },
    {
      "bufferView": 6,
      "byteOffset": 7092,
      "componentType": 5126,
      "count": 47,
      "max": [
        1.6333333253860474
      ],
      "min": [
        0.0
      ],
      "type": "SCALAR"
    },
    {
      "bufferView": 7,
      "byteOffset": 9240,
      "componentType": 5126,
      "count": 47,
      "max": [
        5.088031684863381e-08,
        15.234966278076172,
        2.706148052311619e-07
      ],
      "min": [
        5.088026000521495e-08,
        15.234966278076172,
        2.706148052311619e-07
      ],
      "type": "VEC3"
    },
    {
      "bufferView": 6,
      "byteOffset": 7280,
      "componentType": 5126,
      "count": 50,
      "max": [
        1.6333333253860474
      ],
      "min": [
        0.0
      ],
      "type": "SCALAR"
    },
    {
      "bufferView": 8,
      "byteOffset": 16048,
      "componentType": 5126,
      "count": 50,
      "max": [
        0.30639392137527466,
        0.07786478847265244,
        -0.013036711141467094,
        0.9737370014190674
      ],
      "min": [
        0.2245829552412033,
        0.0021651119459420443,
        -0.037336621433496475,
        0.9500449299812317
      ],
      "type": "VEC4"
    },
    {
      "bufferView": 6,
      "byteOffset": 7480,
      "componentType": 5126,
      "count": 49,
      "max": [
        1.6333333253860474
      ],
      "min": [
        0.0
      ],
      "type": "SCALAR"
    },
    {
      "bufferView": 7,
      "byteOffset": 9804,
      "componentType": 5126,
      "count": 49,
      "max": [
        -8.120773031805584e-08,
        33.94045639038086,
        -7.4295769536547596e-09
      ],
      "min": [
        -8.12077871614747e-08,
        33.94045639038086,
        -7.429592940866314e-09
      ],
      "type": "VEC3"
    },
    {
      "bufferView": 6,
      "byteOffset": 7676,
      "componentType": 5126,
      "count": 50,
      "max": [
        1.6333333253860474
      ],
      "min": [
        0.0
      ],
      "type": "SCALAR"
    },
    {
      "bufferView": 8,
      "byteOffset": 16848,
      "componentType": 5126,
      "count": 50,
      "max": [
        0.7314262390136719,
        0.20559364557266235,
        0.2841167449951172,
        0.8944880366325378
      ],
      "min": [
        0.3365229368209839,
        -0.00957889761775732,
        -0.12076042592525482,
        0.6788846850395203
      ],
      "type": "VEC4"
    },
    {
      "bufferView": 6,
      "byteOffset": 7876,
      "componentType": 5126,
      "count": 49,
      "max": [
        1.6333333253860474
      ],
      "min": [
        0.0
      ],
      "type": "SCALAR"
    },
    {
      "bufferView": 7,
      "byteOffset": 10392,
      "componentType": 5126,
      "count": 49,
      "max": [
        6.708381761200144e-08,
        39.35158157348633,
        2.6509937356422597e-08
      ],
      "min": [
        6.708378919029201e-08,
        39.35158157348633,
        2.6509919592854203e-08
      ],
      "type": "VEC3"
    },
    {
      "bufferView": 6,
      "byteOffset": 8072,
      "componentType": 5126,
      "count": 50,
      "max": [
        1.6333333253860474
      ],
      "min": [
        0.0
      ],
      "type": "SCALAR"
    },
    {
      "bufferView": 8,
      "byteOffset": 17648,
      "componentType": 5126,
      "count": 50,
      "max": [
        -0.15889669954776764,
        0.10542111098766327,
        0.056186988949775696,
        0.985884428024292
      ],
      "min": [
        -0.5974792838096619,
        -0.11268951743841171,
        -0.07419218868017197,
        0.7929978966712952
      ],
      "type": "VEC4"
    },
    {
      "bufferView": 6,
      "byteOffset": 8272,
      "componentType": 5126,
      "count": 50,
      "max": [
        1.6333333253860474
      ],
      "min": [
        0.0
      ],
      "type": "SCALAR"
    },
    {
      "bufferView": 8,
      "byteOffset": 18448,
      "componentType": 5126,
      "count": 50,
      "max": [
        0.05673321709036827,
        0.4143405258655548,
        0.9679877161979675,
        0.24517770111560822
      ],
      "min": [
        -0.23574496805667877,
        0.18036016821861267,
        0.8706902265548706,
        -0.09764274209737778
      ],
      "type": "VEC4"
    },
    {
      "bufferView": 6,
      "byteOffset": 8472,
      "componentType": 5126,
      "count": 50,
      "max": [
        1.6333333253860474
      ],
      "min": [
        0.0
      ],
      "type": "SCALAR"
    },
    {
      "bufferView": 7,
      "byteOffset": 10980,
      "componentType": 5126,
      "count": 50,
      "max": [
        1.9456934928894043,
        90.35617065429688,
        -0.8409791588783264
      ],
      "min": [
        -4.083592891693115,
        70.8990707397461,
        -200.45663452148438
      ],
      "type": "VEC3"
    },
    {
      "bufferView": 6,
      "byteOffset": 8672,
      "componentType": 5126,
      "count": 50,
      "max": [
        1.6333333253860474
      ],
      "min": [
        0.0
      ],
      "type": "SCALAR"
    },
    {
      "bufferView": 8,
      "byteOffset": 19248,
      "componentType": 5126,
      "count": 50,
      "max": [
        0.13644377887248993,
        -0.44124191999435425,
        0.16230975091457367,
        0.8914747834205627
      ],
      "min": [
        -0.03144285827875137,
        -0.596632182598114,
        -0.001769190770573914,
        0.7923798561096191
      ],
      "type": "VEC4"
    }
  ],
  "animations": [
    {
      "channels": [
        {
          "sampler": 0,
          "target": {
            "node": 24,
            "path": "translation"
          }
        },
        {
          "sampler": 1,
          "target": {
            "node": 24,
            "path": "rotation"
          }
        },
        {
          "sampler": 2,
          "target": {
            "node": 23,
            "path": "translation"
          }
        },
        {
          "sampler": 3,
          "target": {
            "node": 23,
            "path": "rotation"
          }
        },
        {
          "sampler": 4,
          "target": {
            "node": 32,
            "path": "rotation"
          }
        },
        {
          "sampler": 5,
          "target": {
            "node": 31,
            "path": "rotation"
          }
        },
        {
          "sampler": 6,
          "target": {
            "node": 30,
            "path": "rotation"
          }
        },
        {
          "sampler": 7,
          "target": {
            "node": 29,
            "path": "translation"
          }
        },
        {
          "sampler": 8,
          "target": {
            "node": 29,
            "path": "rotation"
          }
        },
        {
          "sampler": 9,
          "target": {
            "node": 28,
            "path": "translation"
          }
        },
        {
          "sampler": 10,
          "target": {
            "node": 28,
            "path": "rotation"
          }
        },
        {
          "sampler": 11,
          "target": {
            "node": 27,
            "path": "translation"
          }
        },
        {
          "sampler": 12,
          "target": {
            "node": 27,
            "path": "rotation"
          }
        },
        {
          "sampler": 13,
          "target": {
            "node": 26,
            "path": "rotation"
          }
        },
        {
          "sampler": 14,
          "target": {
            "node": 40,
            "path": "rotation"
          }
        },
        {
          "sampler": 15,
          "target": {
            "node": 39,
            "path": "translation"
          }
        },
        {
          "sampler": 16,
          "target": {
            "node": 39,
            "path": "rotation"
          }
        },
        {
          "sampler": 17,
          "target": {
            "node": 38,
            "path": "translation"
          }
        },
        {
          "sampler": 18,
          "target": {
            "node": 38,
            "path": "rotation"
          }
        },
        {
          "sampler": 19,
          "target": {
            "node": 37,
            "path": "translation"
          }
        },
        {
          "sampler": 20,
          "target": {
            "node": 37,
            "path": "rotation"
          }
        },
        {
          "sampler": 21,
          "target": {
            "node": 36,
            "path": "translation"
          }
        },
        {
          "sampler": 22,
          "target": {
            "node": 36,
            "path": "rotation"
          }
        },
        {
          "sampler": 23,
          "target": {
            "node": 35,
            "path": "translation"
          }
        },
        {
          "sampler": 24,
          "target": {
            "node": 35,
            "path": "rotation"
          }
        },
        {
          "sampler": 25,
          "target": {
            "node": 34,
            "path": "rotation"
          }
        },
        {
          "sampler": 26,
          "target": {
            "node": 22,
            "path": "translation"
          }
        },
        {
          "sampler": 27,
          "target": {
            "node": 22,
            "path": "rotation"
          }
        },
        {
          "sampler": 28,
          "target": {
            "node": 21,
            "path": "translation"
          }
        },
        {
          "sampler": 29,
          "target": {
            "node": 21,
            "path": "rotation"
          }
        },
        {
          "sampler": 30,
          "target": {
            "node": 20,
            "path": "translation"
          }
        },
        {
          "sampler": 31,
          "target": {
            "node": 20,
            "path": "rotation"
          }
        },
        {
          "sampler": 32,
          "target": {
            "node": 45,
            "path": "translation"
          }
        },
        {
          "sampler": 33,
          "target": {
            "node": 45,
            "path": "rotation"
          }
        },
        {
          "sampler": 34,
          "target": {
            "node": 44,
            "path": "translation"
          }
        },
        {
          "sampler": 35,
          "target": {
            "node": 44,
            "path": "rotation"
          }
        },
        {
          "sampler": 36,
          "target": {
            "node": 43,
            "path": "translation"
          }
        },
        {
          "sampler": 37,
          "target": {
            "node": 43,
            "path": "rotation"
          }
        },
        {
          "sampler": 38,
          "target": {
            "node": 42,
            "path": "rotation"
          }
        },
        {
          "sampler": 39,
          "target": {
            "node": 50,
            "path": "translation"
          }
        },
        {
          "sampler": 40,
          "target": {
            "node": 50,
            "path": "rotation"
          }
        },
        {
          "sampler": 41,
          "target": {
            "node": 49,
            "path": "translation"
          }
        },
        {
          "sampler": 42,
          "target": {
            "node": 49,
            "path": "rotation"
          }
        },
        {
          "sampler": 43,
          "target": {
            "node": 48,
            "path": "translation"
          }
        },
        {
          "sampler": 44,
          "target": {
            "node": 48,
            "path": "rotation"
          }
        },
        {
          "sampler": 45,
          "target": {
            "node": 47,
            "path": "rotation"
          }
        },
        {
          "sampler": 46,
          "target": {
            "node": 19,
            "path": "translation"
          }
        },
        {
          "sampler": 47,
          "target": {
            "node": 19,
            "path": "rotation"
          }
        }
      ],
      "name": "mixamo.com",
      "samplers": [
        {
          "input": 57,
          "interpolation": "LINEAR",
          "output": 58
        },
        {
          "input": 59,
          "interpolation": "LINEAR",
          "output": 60
        },
        {
          "input": 61,
          "interpolation": "LINEAR",
          "output": 62
        },
        {
          "input": 63,
          "interpolation": "LINEAR",
          "output": 64
        },
        {
          "input": 65,
          "interpolation": "LINEAR",
          "output": 66
        },
        {
          "input": 67,
          "interpolation": "LINEAR",
          "output": 68
        },
        {
          "input": 69,
          "interpolation": "LINEAR",
          "output": 70
        },
        {
          "input": 71,
          "interpolation": "LINEAR",
          "output": 72
        },
        {
          "input": 73,
          "interpolation": "LINEAR",
          "output": 74
        },
        {
          "input": 75,
          "interpolation": "LINEAR",
          "output": 76
        },
        {
          "input": 77,
          "interpolation": "LINEAR",
          "output": 78
        },
        {
          "input": 79,
          "interpolation": "LINEAR",
          "output": 80
        },
        {
          "input": 81,
          "interpolation": "LINEAR",
          "output": 82
        },
        {
          "input": 83,
          "interpolation": "LINEAR",
          "output": 84
        },
        {
          "input": 85,
          "interpolation": "LINEAR",
          "output": 86
        },
        {
          "input": 87,
          "interpolation": "LINEAR",
          "output": 88
        },
        {
          "input": 89,
          "interpolation": "LINEAR",
          "output": 90
        },
        {
          "input": 91,
          "interpolation": "LINEAR",
          "output": 92
        },
        {
          "input": 93,
          "interpolation": "LINEAR",
          "output": 94
        },
        {
          "input": 95,
          "interpolation": "LINEAR",
          "output": 96
        },
        {
          "input": 97,
          "interpolation": "LINEAR",
          "output": 98
        },
        {
          "input": 99,
          "interpolation": "LINEAR",
          "output": 100
        },
        {
          "input": 101,
          "interpolation": "LINEAR",
          "output": 102
        },
        {
          "input": 103,
          "interpolation": "LINEAR",
          "output": 104
        },
        {
          "input": 105,
          "interpolation": "LINEAR",
          "output": 106
        },
        {
          "input": 107,
          "interpolation": "LINEAR",
          "output": 108
        },
        {
          "input": 109,
          "interpolation": "LINEAR",
          "output": 110
        },
        {
          "input": 111,
          "interpolation": "LINEAR",
          "output": 112
        },
        {
          "input": 113,
          "interpolation": "LINEAR",
          "output": 114
        },
        {
          "input": 115,
          "interpolation": "LINEAR",
          "output": 116
        },
        {
          "input": 117,
          "interpolation": "LINEAR",
          "output": 118
        },
        {
          "input": 119,
          "interpolation": "LINEAR",
          "output": 120
        },
        {
          "input": 121,
          "interpolation": "LINEAR",
          "output": 122
        },
        {
          "input": 123,
          "interpolation": "LINEAR",
          "output": 124
        },
        {
          "input": 125,
          "interpolation": "LINEAR",
          "output": 126
        },
        {
          "input": 127,
          "interpolation": "LINEAR",
          "output": 128
        },
        {
          "input": 129,
          "interpolation": "LINEAR",
          "output": 130
        },
        {
          "input": 131,
          "interpolation": "LINEAR",
          "output": 132
        },
        {
          "input": 133,
          "interpolation": "LINEAR",
          "output": 134
        },
        {
          "input": 135,
          "interpolation": "LINEAR",
          "output": 136
        },
        {
          "input": 137,
          "interpolation": "LINEAR",
          "output": 138
        },
        {
          "input": 139,
          "interpolation": "LINEAR",
          "output": 140
        },
        {
          "input": 141,
          "interpolation": "LINEAR",
          "output": 142
        },
        {
          "input": 143,
          "interpolation": "LINEAR",
          "output": 144
        },
        {
          "input": 145,
          "interpolation": "LINEAR",
          "output": 146
        },
        {
          "input": 147,
          "interpolation": "LINEAR",
          "output": 148
        },
        {
          "input": 149,
          "interpolation": "LINEAR",
          "output": 150
        },
        {
          "input": 151,
          "interpolation": "LINEAR",
          "output": 152
        }
      ]
    }
  ],
  "asset": {
    "extras": {
      "author": "1831251 (https://sketchfab.com/1831251)",
      "license": "CC-BY-4.0 (http://creativecommons.org/licenses/by/4.0/)",
      "source": "https://sketchfab.com/3d-models/fuse-personnage-826c65a1832d45a7a72e107a20f26864",
      "title": "Fuse personnage"
    },
    "generator": "Sketchfab-12.68.0",
    "version": "2.0"
  },
  "bufferViews": [
    {
      "buffer": 0,
      "byteLength": 174216,
      "byteStride": 8,
      "name": "shortBufferViews",
      "target": 34962
    },
    {
      "buffer": 0,
      "byteLength": 429240,
      "byteOffset": 174216,
      "name": "floatBufferViews",
      "target": 34963
    },
    {
      "buffer": 0,
      "byteLength": 174216,
      "byteOffset": 603456,
      "byteStride": 8,
      "name": "floatBufferViews",
      "target": 34962
    },
    {
      "buffer": 0,
      "byteLength": 522648,
      "byteOffset": 777672,
      "byteStride": 12,
      "name": "floatBufferViews",
      "target": 34962
    },
    {
      "buffer": 0,
      "byteLength": 696864,
      "byteOffset": 1300320,
      "byteStride": 16,
      "name": "floatBufferViews",
      "target": 34962
    },
    {
      "buffer": 0,
      "byteLength": 2176,
      "byteOffset": 1997184,
      "name": "floatBufferViews"
    },
    {
      "buffer": 0,
      "byteLength": 8872,
      "byteOffset": 1999360,
      "name": "floatBufferViews"
    },
    {
      "buffer": 0,
      "byteLength": 11580,
      "byteOffset": 2008232,
      "byteStride": 12,
      "name": "floatBufferViews"
    },
    {
      "buffer": 0,
      "byteLength": 20048,
      "byteOffset": 2019812,
      "byteStride": 16,
      "name": "floatBufferViews"
    }
  ],
  "buffers": [
    {
      "byteLength": 2039860,
      "uri": "scene.bin"
    }
  ],
  "images": [
    {
      "uri": "textures/PackedMaterial0mat_baseColor.png"
    },
    {
      "uri": "textures/PackedMaterial0mat_normal.png"
    }
  ],
  "materials": [
    {
      "alphaMode": "BLEND",
      "doubleSided": true,
      "name": "PackedMaterial0mat",
      "normalTexture": {
        "index": 1
      },
      "pbrMetallicRoughness": {
        "baseColorTexture": {
          "index": 0
        },
        "metallicFactor": 0.0,
        "roughnessFactor": 0.7885257473118872
      }
    }
  ],
  "meshes": [
    {
      "name": "Eyelashes_PackedMaterial0mat_0",
      "primitives": [
        {
          "attributes": {
            "JOINTS_0": 41,
            "NORMAL": 1,
            "POSITION": 0,
            "TANGENT": 2,
            "TEXCOORD_0": 3,
            "TEXCOORD_1": 3,
            "TEXCOORD_2": 3,
            "TEXCOORD_3": 3,
            "TEXCOORD_4": 3,
            "WEIGHTS_0": 42
          },
          "indices": 4,
          "material": 0,
          "mode": 4
        }
      ]
    },
    {
      "name": "default_PackedMaterial0mat_0",
      "primitives": [
        {
          "attributes": {
            "JOINTS_0": 43,
            "NORMAL": 6,
            "POSITION": 5,
            "TANGENT": 7,
            "TEXCOORD_0": 8,
            "TEXCOORD_1": 8,
            "TEXCOORD_2": 8,
            "TEXCOORD_3": 8,
            "TEXCOORD_4": 8,
            "WEIGHTS_0": 44
          },
          "indices": 9,
          "material": 0,
          "mode": 4
        }
      ]
    },
    {
      "name": "Body_PackedMaterial0mat_0",
      "primitives": [
        {
          "attributes": {
            "JOINTS_0": 45,
            "NORMAL": 11,
            "POSITION": 10,
            "TANGENT": 12,
            "TEXCOORD_0": 13,
            "TEXCOORD_1": 13,
            "TEXCOORD_2": 13,
            "TEXCOORD_3": 13,
            "TEXCOORD_4": 13,
            "WEIGHTS_0": 46
          },
          "indices": 14,
          "material": 0,
          "mode": 4
        }
      ]
    },
    {
      "name": "Tops_PackedMaterial0mat_0",
      "primitives": [
        {
          "attributes": {
            "JOINTS_0": 47,
            "NORMAL": 16,
            "POSITION": 15,
            "TANGENT": 17,
            "TEXCOORD_0": 18,
            "TEXCOORD_1": 18,
            "TEXCOORD_2": 18,
            "TEXCOORD_3": 18,
            "TEXCOORD_4": 18,
            "WEIGHTS_0": 48
          },
          "indices": 19,
          "material": 0,
          "mode": 4
        }
      ]
    },
    {
      "name": "Bottoms_PackedMaterial0mat_0",
      "primitives": [
        {
          "attributes": {
            "JOINTS_0": 49,
            "NORMAL": 21,
            "POSITION": 20,
            "TANGENT": 22,
            "TEXCOORD_0": 23,
            "TEXCOORD_1": 23,
            "TEXCOORD_2": 23,
            "TEXCOORD_3": 23,
            "TEXCOORD_4": 23,
            "WEIGHTS_0": 50
          },
          "indices": 24,
          "material": 0,
          "mode": 4
        }
      ]
    },
    {
      "name": "Shoes_PackedMaterial0mat_0",
      "primitives": [
        {
          "attributes": {
            "JOINTS_0": 51,
            "NORMAL": 26,
            "POSITION": 25,
            "TANGENT": 27,
            "TEXCOORD_0": 28,
            "TEXCOORD_1": 28,
            "TEXCOORD_2": 28,
            "TEXCOORD_3": 28,
            "TEXCOORD_4": 28,
            "WEIGHTS_0": 52
          },
          "indices": 29,
          "material": 0,
          "mode": 4
        }
      ]
    },
    {
      "name": "Hair_PackedMaterial0mat_0",
      "primitives": [
        {
          "attributes": {
            "JOINTS_0": 53,
            "NORMAL": 31,
            "POSITION": 30,
            "TANGENT": 32,
            "TEXCOORD_0": 33,
            "TEXCOORD_1": 33,
            "TEXCOORD_2": 33,
            "TEXCOORD_3": 33,
            "TEXCOORD_4": 33,
            "WEIGHTS_0": 54
          },
          "indices": 34,
          "material": 0,
          "mode": 4
        }
      ]
    },
    {
      "name": "Gloves_PackedMaterial0mat_0",
      "primitives": [
        {
          "attributes": {
            "JOINTS_0": 55,
            "NORMAL": 36,
            "POSITION": 35,
            "TANGENT": 37,
            "TEXCOORD_0": 38,
            "TEXCOORD_1": 38,
            "TEXCOORD_2": 38,
            "TEXCOORD_3": 38,
            "TEXCOORD_4": 38,
            "WEIGHTS_0": 56
          },
          "indices": 39,
          "material": 0,
          "mode": 4
        }
      ]
    }
  ],
  "nodes": [
    {
      "children": [
        1
      ],
      "matrix": [
        0.012585120275616646,
        0.0,
        0.0,
        0.0,
        0.0,
        2.7944580595332992e-18,
        -0.012585120275616646,
        0.0,
        0.0,
        0.012585120275616646,
        2.7944580595332992e-18,
        0.0,
        0.0,
        0.0,
        0.0,
        1.0
      ],
      "name": "Sketchfab_model"
    },
    {
      "children": [
        2
      ],
      "matrix": [
        1.0,
        0.0,
        0.0,
        0.0,
        0.0,
        0.0,
        1.0,
        0.0,
        0.0,
        -1.0,
        0.0,
        0.0,
        0.0,
        0.0,
        0.0,
        1.0
      ],
      "name": "0321ba2a49d84de29f889a03796da5ec.fbx"
    },
    {
      "children": [
        3
      ],
      "name": "Object_2"
    },
    {
      "children": [
        4
      ],
      "name": "RootNode"
    },
    {
      "children": [
        5,
        6,
        7,
        9,
        11,
        13,
        15,
        16,
        18,
        8,
        10,
        12,
        14,
        17,
        52,
        53,
        54,
        55,
        56,
        57,
        58,
        59
      ],
      "name": "Object_4"
    },
    {
      "children": [
        19
      ],
      "name": "_rootJoint"
    },
    {
      "mesh": 0,
      "name": "Object_6",
      "skin": 0
    },
    {
      "mesh": 1,
      "name": "Object_7",
      "skin": 0
    },
    {
      "matrix": [
        1.0,
        -1.6653345369377348e-16,
        -2.6020852139652106e-18,
        0.0,
        1.6653345369377346e-16,
        0.9999999999999999,
        -6.938893903907228e-18,
        0.0,
        2.6020852139652114e-18,
        6.938893903907228e-18,
        0.9999999999999999,
        0.0,
        -1.0658141036401503e-14,
        -5.684341886080802e-14,
        4.440892098500626e-16,
        1.0
      ],
      "name": "Object_8"
    },
    {
      "mesh": 2,
      "name": "Object_9",
      "skin": 0
    },
    {
      "matrix": [
        1.0,
        0.0,
        0.0,
        0.0,
        0.0,
        1.0,
        0.0,
        0.0,
        0.0,
        0.0,
        1.0,
        0.0,
        0.0,
        0.0,
        -5.551115123125783e-16,
        1.0
      ],
      "name": "Object_10"
    },
    {
      "mesh": 3,
      "name": "Object_11",
      "skin": 0
    },
    {
      "matrix": [
        1.0,
        -1.6653345369377348e-16,
        -2.6020852139652106e-18,
        0.0,
        1.6653345369377346e-16,
        0.9999999999999999,
        -6.938893903907228e-18,
        0.0,
        2.6020852139652114e-18,
        6.938893903907228e-18,
        0.9999999999999999,
        0.0,
        -1.0658141036401503e-14,
        -5.684341886080802e-14,
        4.440892098500626e-16,
        1.0
      ],
      "name": "Object_12"
    },
    {
      "mesh": 4,
      "name": "Object_13",
      "skin": 0
    },
    {
      "matrix": [
        1.0,
        4.20128341838133e-18,
        4.336808689942018e-19,
        0.0,
        -4.201283418381329e-18,
        0.9999999999999999,
        -1.734723475976807e-18,
        0.0,
        -4.336808689942018e-19,
        1.7347234759768075e-18,
        1.0,
        0.0,
        1.7763568394002505e-15,
        0.0,
        -4.440892098500626e-16,
        1.0
      ],
      "name": "Object_14"
    },
    {
      "mesh": 5,
      "name": "Object_15",
      "skin": 0
    },
    {
      "mesh": 6,
      "name": "Object_16",
      "skin": 0
    },
    {
      "matrix": [
        1.0,
        2.7755575615628914e-17,
        -1.1275702593849248e-17,
        0.0,
        -2.775557561562891e-17,
        0.9999999999999999,
        -1.0408340855860843e-17,
        0.0,
        1.1275702593849246e-17,
        1.0408340855860843e-17,
        0.9999999999999999,
        0.0,
        -3.552713678800501e-15,
        2.842170943040401e-14,
        2.4424906541753444e-15,
        1.0
      ],
      "name": "Object_17"
    },
    {
      "mesh": 7,
      "name": "Object_18",
      "skin": 0
    },
    {
      "children": [
        20,
        42,
        47
      ],
      "name": "mixamorig:Hips_01",
      "translation": [
        -0.19855117797851563,
        86.39856719970703,
        -1.1832138299942017
      ]
    },
    {
      "children": [
        21
      ],
      "name": "mixamorig:Spine_02",
      "rotation": [
        0.0041450317949056625,
        0.0,
        0.0,
        0.9999914169311523
      ],
      "translation": [
        0.0,
        9.912513732910156,
        0.08217740058898926
      ]
    },
    {
      "children": [
        22
      ],
      "name": "mixamorig:Spine1_03",
      "rotation": [
        -1.8625812003847386e-09,
        -0.0,
        0.0,
        1.0
      ],
      "translation": [
        0.0,
        11.564980506896973,
        -6.78063827308506e-10
      ]
    },
    {
      "children": [
        23,
        26,
        34
      ],
      "name": "mixamorig:Spine2_04",
      "translation": [
        0.0,
        13.217122077941895,
        5.366992628097478e-09
      ]
    },
    {
      "children": [
        24
      ],
      "name": "mixamorig:Neck_05",
      "rotation": [
        -0.004145029932260513,
        -0.0,
        0.0,
        0.9999914169311523
      ],
      "translation": [
        0.0,
        14.869270324707031,
        2.4288219435675273e-08
      ]
    },
    {
      "children": [
        25
      ],
      "name": "mixamorig:Head_06",
      "translation": [
        0.0,
        7.043365478515625,
        2.2604446411132813
      ]
    },
    {
      "name": "mixamorig:HeadTop_End_07",
      "translation": [
        0.0,
        18.719589233398438,
        6.007724761962891
      ]
    },
    {
      "children": [
        27
      ],
      "name": "mixamorig:LeftShoulder_08",
      "rotation": [
        0.5735759735107422,
        0.4187266230583191,
        -0.5586320161819458,
        0.4284963011741638
      ],
      "translation": [
        6.4085588455200195,
        12.821529388427734,
        0.18204158544540405
      ]
    },
    {
      "children": [
        28
      ],
      "name": "mixamorig:LeftArm_09",
      "rotation": [
        -0.06798781454563141,
        0.002965462626889348,
        -0.04347510635852814,
        0.996734082698822
      ],
      "translation": [
        -1.3987415670158043e-09,
        15.438668251037598,
        -1.0073259204546048e-07
      ]
    },
    {
      "children": [
        29
      ],
      "name": "mixamorig:LeftForeArm_010",
      "rotation": [
        -0.0652179941534996,
        -0.004314906895160675,
        0.06587578356266022,
        0.9956849813461304
      ],
      "translation": [
        -5.488011378673718e-09,
        18.849075317382813,
        1.7232224536201102e-08
      ]
    },
    {
      "children": [
        30
      ],
      "name": "mixamorig:LeftHand_011",
      "rotation": [
        -0.026441864669322968,
        -0.000202784183784388,
        0.0076661682687699795,
        0.9996210336685181
      ],
      "translation": [
        3.357835964834521e-08,
        18.463605880737305,
        -1.8698585790843936e-08
      ]
    },
    {
      "children": [
        31
      ],
      "name": "mixamorig:LeftHandIndex1_012",
      "rotation": [
        0.05341115593910217,
        -0.0005638436414301395,
        -0.010541001334786415,
        0.9985167980194092
      ],
      "translation": [
        -5.118127788250604e-08,
        12.79050350189209,
        2.417976929791621e-09
      ]
    },
    {
      "children": [
        32
      ],
      "name": "mixamorig:LeftHandIndex2_013",
      "rotation": [
        1.5287250632045613e-17,
        -1.734723475976807e-18,
        -6.938893903907228e-18,
        1.0
      ],
      "translation": [
        -3.6375809031596873e-09,
        1.353484869003296,
        7.3515593612683006e-09
      ]
    },
    {
      "children": [
        33
      ],
      "name": "mixamorig:LeftHandIndex3_014",
      "rotation": [
        1.5287250632045613e-17,
        -3.469446951953614e-18,
        5.303830510910161e-35,
        1.0
      ],
      "translation": [
        0.10939759761095047,
        2.228433847427368,
        -0.0714941993355751
      ]
    },
    {
      "name": "mixamorig:LeftHandIndex4_015",
      "rotation": [
        1.5395670849294163e-17,
        -1.734723475976807e-18,
        2.670723165068237e-35,
        1.0
      ],
      "translation": [
        0.17649534344673157,
        1.8989847898483276,
        -0.008841668255627155
      ]
    },
    {
      "children": [
        35
      ],
      "name": "mixamorig:RightShoulder_016",
      "rotation": [
        0.560161292552948,
        -0.42740821838378906,
        0.5722374320030212,
        0.4196259081363678
      ],
      "translation": [
        -6.4085588455200195,
        12.818793296813965,
        -0.14806625247001648
      ]
    },
    {
      "children": [
        36
      ],
      "name": "mixamorig:RightArm_017",
      "rotation": [
        -0.06816659867763519,
        -0.0037503698840737343,
        0.054806455969810486,
        0.9961603879928589
      ],
      "translation": [
        -3.158212580345321e-09,
        15.438668251037598,
        -1.0069277323054848e-07
      ]
    },
    {
      "children": [
        37
      ],
      "name": "mixamorig:RightForeArm_018",
      "rotation": [
        -0.06517981737852097,
        0.005896500311791897,
        -0.08990404009819031,
        0.9937978386878967
      ],
      "translation": [
        2.8514687500091895e-08,
        18.971765518188477,
        7.351712838499225e-08
      ]
    },
    {
      "children": [
        38
      ],
      "name": "mixamorig:RightHand_019",
      "rotation": [
        0.02389090321958065,
        5.858830627403222e-05,
        0.002451624721288681,
        0.9997115731239319
      ],
      "translation": [
        2.049522151992278e-08,
        18.44127655029297,
        -3.8183145534276264e-10
      ]
    },
    {
      "children": [
        39
      ],
      "name": "mixamorig:RightHandIndex1_020",
      "rotation": [
        -0.036599840968847275,
        0.00037407531635835767,
        -0.010213302448391914,
        0.9992778301239014
      ],
      "translation": [
        -1.6664944979538632e-09,
        13.45737075805664,
        3.464913334028097e-08
      ]
    },
    {
      "children": [
        40
      ],
      "name": "mixamorig:RightHandIndex2_021",
      "rotation": [
        1.3986208025063007e-17,
        8.673617379884035e-19,
        6.938893903907228e-18,
        1.0
      ],
      "translation": [
        -6.068667346426082e-09,
        1.2365106344223022,
        -2.3283774908122723e-09
      ]
    },
    {
      "children": [
        41
      ],
      "name": "mixamorig:RightHandIndex3_00",
      "rotation": [
        1.0842021724855044e-19,
        8.673617379884035e-19,
        -9.4039548065783e-38,
        1.0
      ],
      "translation": [
        -0.1731736958026886,
        1.9783072471618652,
        0.17553463578224182
      ]
    },
    {
      "name": "mixamorig:RightHandIndex4_022",
      "rotation": [
        1.4474099002681484e-17,
        1.734723475976807e-18,
        -2.510855933356406e-35,
        1.0
      ],
      "translation": [
        -0.4151517152786255,
        1.2253247499465942,
        0.618014931678772
      ]
    },
    {
      "children": [
        43
      ],
      "name": "mixamorig:LeftUpLeg_023",
      "rotation": [
        0.0005264996434561908,
        -0.021411770954728127,
        0.9994685053825378,
        0.02457619458436966
      ],
      "translation": [
        11.33932113647461,
        -5.511940002441406,
        0.34211254119873047
      ]
    },
    {
      "children": [
        44
      ],
      "name": "mixamorig:LeftLeg_024",
      "rotation": [
        0.02629215642809868,
        0.001202195417135954,
        0.045660946518182755,
        0.9986103177070618
      ],
      "translation": [
        -5.0019387742850085e-08,
        39.36050033569336,
        -5.118391044334203e-08
      ]
    },
    {
      "children": [
        45
      ],
      "name": "mixamorig:LeftFoot_025",
      "rotation": [
        0.4963618516921997,
        0.0425984188914299,
        -0.024395495653152466,
        0.866726815700531
      ],
      "translation": [
        -1.4535876502463907e-08,
        33.941444396972656,
        -2.7922566481208833e-09
      ]
    },
    {
      "children": [
        46
      ],
      "name": "mixamorig:LeftToeBase_026",
      "rotation": [
        0.2640240490436554,
        -0.05792441964149475,
        0.015886912122368813,
        0.962644100189209
      ],
      "translation": [
        -3.132100090397216e-08,
        15.459321975708008,
        -1.1219055551237034e-07
      ]
    },
    {
      "name": "mixamorig:LeftToe_End_027",
      "rotation": [
        -5.443253486836497e-11,
        2.4692704478357363e-17,
        6.938893903907228e-18,
        1.0
      ],
      "translation": [
        -1.2136924354422263e-08,
        6.567253589630127,
        -9.177378301750139e-10
      ]
    },
    {
      "children": [
        48
      ],
      "name": "mixamorig:RightUpLeg_028",
      "rotation": [
        -0.0004568501899484545,
        -0.018575040623545647,
        0.9995251297950745,
        -0.024583162739872932
      ],
      "translation": [
        -11.33932113647461,
        -5.511940002441406,
        -0.24513661861419678
      ]
    },
    {
      "children": [
        49
      ],
      "name": "mixamorig:RightLeg_029",
      "rotation": [
        0.021626638248562813,
        -0.0009887954220175743,
        -0.045662764459848404,
        0.9987223148345947
      ],
      "translation": [
        6.708379629571937e-08,
        39.35158157348633,
        2.650993025099524e-08
      ]
    },
    {
      "children": [
        50
      ],
      "name": "mixamorig:RightFoot_030",
      "rotation": [
        0.4942445456981659,
        -0.04352906346321106,
        0.02478918805718422,
        0.8678784966468811
      ],
      "translation": [
        -8.120776584519263e-08,
        33.94045639038086,
        -7.4295858354389566e-09
      ]
    },
    {
      "children": [
        51
      ],
      "name": "mixamorig:RightToeBase_031",
      "rotation": [
        0.268087238073349,
        0.05927164852619171,
        -0.016527483239769936,
        0.9614275693893433
      ],
      "translation": [
        5.088029553235174e-08,
        15.234966278076172,
        2.706148052311619e-07
      ]
    },
    {
      "name": "mixamorig:RightToe_End_032",
      "rotation": [
        1.5976474310175348e-10,
        -3.450473413935118e-17,
        5.512640124370117e-27,
        1.0
      ],
      "translation": [
        -6.907647787102178e-09,
        6.6743927001953125,
        1.557918571926109e-09
      ]
    },
    {
      "name": "Eyelashes"
    },
    {
      "name": "default"
    },
    {
      "name": "Body"
    },
    {
      "name": "Tops"
    },
    {
      "name": "Bottoms"
    },
    {
      "name": "Shoes"
    },
    {
      "name": "Hair"
    },
    {
      "name": "Gloves"
    }
  ],
  "samplers": [
    {
      "magFilter": 9729,
      "minFilter": 9987,
      "wrapS": 10497,
      "wrapT": 10497
    }
  ],
  "scene": 0,
  "scenes": [
    {
      "name": "Sketchfab_Scene",
      "nodes": [
        0
      ]
    }
  ],
  "skins": [
    {
      "inverseBindMatrices": 40,
      "joints": [
        5,
        19,
        20,
        21,
        22,
        23,
        24,
        25,
        26,
        27,
        28,
        29,
        30,
        31,
        32,
        33,
        34,
        35,
        36,
        37,
        38,
        39,
        40,
        41,
        42,
        43,
        44,
        45,
        46,
        47,
        48,
        49,
        50,
        51
      ],
      "skeleton": 5
    }
  ],
  "textures": [
    {
      "sampler": 0,
      "source": 0
    },
    {
      "sampler": 0,
      "source": 1
    }
  ]
}
